/* XPM */
static char *_33a9aad278e457afd39b4e3ccd10702Q6hUEmraF3U8gtVM[] = {
/* columns rows colors chars-per-pixel */
"96 33 19 1 ",
"  c #5E4522",
". c #452226",
"X c #36160A",
"o c #3D2C11",
"O c #BA9961",
"+ c #4D381C",
"@ c #70592B",
"# c #EBCB7A",
"$ c #E5BD77",
"% c #9E804C",
"& c #C29A5E",
"* c #C5A260",
"= c #ECD093",
"- c #A2884E",
"; c #F0DAAD",
": c #825734",
"> c #916A3B",
", c #78652B",
"< c white",
/* pixels */
"                                                                ................................",
"                                                                ................................",
"                                                                                                ",
" XXXXXXXXXXXXXXX XXXXXXXXXXXXXX  XXXXXXXXXXXXXXXXXXXXXXXXXXXXXX  ooooooXXXXXXXXXXXXXXXXXXoooooo ",
" OOOOOOo OOOOOOo OOOOOOo OOOOOO  OOOOOOo OOOOOOOOOOOOOOo OOOOOO  o+++++o OOOOOOOOOOOOOOo o+++++ ",
"@O#$#$#o O#$#$#o O#$#$#o O#$#$#@@O#$#$#o O#$#$#$#$#$#$#o O#$#$#@@o+   +o O#$#$#$#$#$#$#o o+   + ",
" O$#$#$o O$#$#$o O$#$#$o O$#$#$  O$#$#$o O$#$#$#$#$#$#$o O$#$#$  +  @  o O$#$#$#$#$#$#$o +  @   ",
"@O#$#$#o O#$#$#o O#$#$#o O#$#$#@@O#$#$#o O#$#$#$#$#$#$#o O#$#$#@@o @ @ o O#$#$#$#$#$#$#o o @ @  ",
"@@ @@@@o @@@@@@o @@@@@@o @@@@ @@@@ @@@@o O$#$#$#$#$###$o @@@@ @@@+  @  o O$#$#$#$#$###$o +  @   ",
"@XXXXXXo XXXXXXo XXXXXXo XXXXXX@@XXXXXXo O#$#$#$#$#$#$#o XXXXXX@@@@@@@@o O#$#$#$#$#$#$#o @@@@@@ ",
"@OOOOOOo OOOOOO+ OOOOOO+ OOOOOO@@OOOOOOo O$#$#$#$###$##+ OOOOOO@@ooooooo O$#$#$#$###$##o oooooo ",
"@O$#$#$+ O$#$#$o O$#$#$o O$#$#$@@O$#$#$+ O#$#$#$#$#$###o O$#$#$@@OOOOOOo O#$#$#$#$#$###+ OOOOOO ",
"@O#$#$#o O#$#$#+ O#$#$#+ O#$#$#@@O#$#$#o O$#$#$###$#$##+ O#$#$#@@O%#&#$+ O$#$#$###$#$##o O$#$*$ ",
"@O$#$#$+ O$#$#$+ O$#$#$+ O$#$#$@@O$#$#$+ O#$#$#$#$#####+ O$#$#$@@O#%#$#o O#$#$#$#$#####+ O#%#&# ",
"@O#$#$#+ O#$#$#+ O#$#$#+ O#$#$#@@O#$#$#+ O$#$###$#$##=#+ O#$#$#@@O$-&#$+ O$#$###$#$####+ O$-&-$ ",
"@@ @@@@+ @@@@@@+ @@@@@@+ @@@@ @@@@ @@@@+ O#$########;#=+ @@@@ @@@O#$#$#+ O#$###########+ O#$#&# ",
"@XXXXXX+ XXXXXX+ XXXXXX+ XXXXXX@@XXXXXX+ O$####$#=#==;#+ XXXXXX@@@ @@@@+ O$####$#######+ @@@@ @ ",
"@OOOOOO+ OOOOOO+ OOOOOO+ OOOOOO@@OOOOOO+ O##$###=#;=;==+ OOOOOO@@oooooo+ O##$#########=+ oooooo ",
"@O$#$#$+ O$#$#$+ O$#$#$+ O$#$#$@@O$#$#$+ O#####=#;=;=;#+ O$#$#$@@OOOOOO+ O#############+ OOOOOO ",
"@O#$#$#+ O#$#$#+ O#$#$#+ O#$#$#@@O#$#$#+ O$#####==;=;##+ O#$#$#@@O$#&#$+ O$############+ O%#$*$ ",
" O$#$#$+ O$#$#$+ O$#$#$+ O$#$#$@ O$#$#$+ O#####;#;=;==#+ O$#$#$@@O#%-$#+ O##########=##+ O#%*&# ",
"@O#$#$#+ O#$#$#+ O#$#$#+ O#$#$#@@O#$#$#+ O####=#=#=#=##+ O#$#$#@ O$*%*$+ O#######=#=###+ O$-$*$ ",
" ::::::+ ::::::+ ::::::+ ::::::@ :>>>>:+ :>:>>>>>>>>:>:+ :>>>>:@@O#$*$#+ O######=#=#=##+ O#$-&# ",
"       +       +       +       @       +               +       @ :>>>>:+ O#####=#=#=#=#+ :>>>>: ",
" +++++++ +++++++ +++++++ ++++++@ +++++++ +++++++ +++++++ ++++++@       + O####=#=#=#;#=+        ",
" oooooo+ oooooo+ oooooo+ oooooo@ oooooo+ oooooo+ oooooo+ oooooo@ +++++++ O#####=#=#==;#+ ++++++ ",
" o++++++ o++++++ o++++++ o+++++@ o++++++ o++++++ o++++++ o+++++@ oooooo+ O####=#=#;=;=#+ oooooo ",
" o+   ++ o+   ++ o+   ++ o+   +@ o+   ++ o+   ++ o+   ++ o+   +@ o++++++ O###=#=#;=;=;#+ o+++++ ",
" +  @  + +  @  + +  @  + +  @    +  @  + +  @  + +  @  + +  @    o+   ++ O##=#=#==;=;##+ o+   + ",
" o @ @ + o @ @ + o @ @ + o @ @ @ o @ @ + o @ @ + o @ @ + o @ @ @ o @ @ + O###=#;#;=;==#+ o @ @  ",
" +  @  + +  @  + +  @  + +  @    +  @  + +  @  + +  @  + +  @    +  @  + O##=#=#=#=#=#=+ +  @   ",
" + @@@ + + @@@ + + @@@ + + @@@   + @@@ + + @@@ + + @@@ + + @@@   + @@@ + O#=#=#######=#+ + @@@  ",
"@@,,,,,@@@,,,,,@@@,,,,,@@@,,,,,@@@,,,,,@@@,,,,,@@@,,,,,@@@,,,,,@@@@@@@@@@@@@@@@@@@@@@@@@@@@@@@@@"
};
